<svg width="30" height="30" viewBox="0 0 30 30" fill="none" xmlns="http://www.w3.org/2000/svg">
<path d="M9.21061 14.6056C12.0655 14.6056 14.3761 11.3547 14.3761 7.33804C14.3761 3.32139 12.0655 0.0704346 9.21061 0.0704346C6.35574 0.0704346 4.04509 3.32139 4.04509 7.33804C4.04509 11.3547 6.35574 14.6056 9.21061 14.6056ZM12.7527 16.6821H12.3699C11.4106 17.331 10.3452 17.7203 9.21061 17.7203C8.07604 17.7203 7.01527 17.331 6.05134 16.6821H5.66854C2.73527 16.6821 0.355438 20.0304 0.355438 24.1574V26.0262C0.355438 27.7457 1.34703 29.1409 2.56923 29.1409H15.852C17.0742 29.1409 18.0658 27.7457 18.0658 26.0262V24.1574C18.0658 20.0304 15.686 16.6821 12.7527 16.6821ZM22.4934 14.6056C24.9378 14.6056 26.921 11.8154 26.921 8.37627C26.921 4.93713 24.9378 2.14689 22.4934 2.14689C20.049 2.14689 18.0658 4.93713 18.0658 8.37627C18.0658 11.8154 20.049 14.6056 22.4934 14.6056ZM24.7072 16.6821H24.5319C23.8908 16.9936 23.2129 17.2012 22.4934 17.2012C21.7739 17.2012 21.0959 16.9936 20.4548 16.6821H20.2796C19.3387 16.6821 18.4716 17.065 17.7107 17.6814C18.836 19.388 19.5416 21.6526 19.5416 24.1574V26.6491C19.5416 26.7919 19.5186 26.9281 19.514 27.0644H27.6589C28.8811 27.0644 29.8727 25.6693 29.8727 23.9497C29.8727 19.9331 27.562 16.6821 24.7072 16.6821Z" fill="black" fill-opacity="0.5"/>
</svg>
