<svg width="27" height="31" viewBox="0 0 27 31" fill="none" xmlns="http://www.w3.org/2000/svg">
<path d="M20.1583 1.89261C20.1587 1.66604 20.1 1.44444 19.9896 1.25593C19.8793 1.06741 19.7223 0.920454 19.5386 0.833693C19.3549 0.746932 19.1527 0.724272 18.9576 0.768586C18.7626 0.8129 18.5835 0.922192 18.443 1.08261L14.426 5.6589C14.3328 5.76534 14.259 5.89167 14.2087 6.03065C14.1583 6.16964 14.1326 6.31856 14.1328 6.4689V12.8597L12.6445 14.5529C12.3468 14.4629 12.0349 14.452 11.7328 14.5209C11.4308 14.5899 11.1467 14.7369 10.9024 14.9507C10.6581 15.1644 10.4602 15.4392 10.3238 15.7539C10.1874 16.0685 10.1162 16.4146 10.1158 16.7656C10.1159 17.0912 10.1771 17.413 10.2951 17.7096C10.4132 18.0062 10.5854 18.2706 10.8004 18.4852C11.0154 18.6999 11.268 18.8598 11.5416 18.9542C11.8151 19.0487 12.1032 19.0756 12.3866 19.0331C12.67 18.9905 12.9422 18.8796 13.1849 18.7076C13.4276 18.5357 13.6354 18.3067 13.7942 18.0359C13.953 17.7652 14.0593 17.4589 14.1059 17.1377C14.1525 16.8164 14.1384 16.4875 14.0645 16.1729L15.5528 14.4774H21.1626C21.2945 14.4777 21.4253 14.4483 21.5473 14.391C21.6693 14.3337 21.7801 14.2495 21.8736 14.1433L25.8906 9.56705C26.0314 9.40704 26.1273 9.203 26.1662 8.98081C26.2051 8.75861 26.1852 8.52826 26.1091 8.31895C26.0329 8.10965 25.9039 7.93082 25.7384 7.80513C25.573 7.67945 25.3785 7.61257 25.1796 7.61297H20.1583V1.89261ZM24.0628 14.8847C24.4085 17.7338 23.9599 20.6347 22.7804 23.1777C21.601 25.7208 19.7502 27.7776 17.4895 29.0579C15.2287 30.3381 12.672 30.7772 10.1804 30.313C7.68883 29.8488 5.38812 28.5049 3.60306 26.4709C1.81801 24.4369 0.638774 21.8156 0.231818 18.977C-0.175139 16.1384 0.21074 13.2259 1.33498 10.6506C2.45922 8.07534 4.26505 5.96732 6.49754 4.62416C8.73003 3.281 11.2764 2.77053 13.7773 3.16482L13.008 4.04118C12.7279 4.35986 12.5057 4.73829 12.3541 5.15486C12.2025 5.57142 12.1244 6.01794 12.1243 6.4689C10.3367 6.4689 8.58923 7.07279 7.10289 8.2042C5.61656 9.33561 4.4581 10.9437 3.77401 12.8252C3.08993 14.7067 2.91094 16.777 3.25968 18.7743C3.60843 20.7717 4.46924 22.6064 5.73326 24.0464C6.99729 25.4864 8.60776 26.4671 10.361 26.8644C12.1143 27.2617 13.9316 27.0578 15.5831 26.2784C17.2346 25.4991 18.6462 24.1793 19.6393 22.4861C20.6325 20.7928 21.1626 18.802 21.1626 16.7656C21.9613 16.7648 22.7271 16.4026 23.2916 15.7588L24.0628 14.8847ZM12.1243 8.75705C10.7339 8.75705 9.3748 9.22674 8.21876 10.1067C7.06272 10.9867 6.1617 12.2375 5.62963 13.7008C5.09756 15.1642 4.95835 16.7744 5.2296 18.3279C5.50084 19.8814 6.17036 21.3084 7.15349 22.4284C8.13662 23.5484 9.38921 24.3112 10.7528 24.6202C12.1165 24.9292 13.5299 24.7706 14.8145 24.1645C16.099 23.5583 17.1969 22.5318 17.9693 21.2148C18.7418 19.8979 19.1541 18.3495 19.1541 16.7656H16.3843L16.1333 17.0516C16.085 17.9306 15.8151 18.7751 15.3559 19.4837C14.8967 20.1923 14.2678 20.7349 13.5446 21.0464C12.8215 21.3578 12.0348 21.4249 11.279 21.2396C10.5231 21.0543 9.83032 20.6245 9.28364 20.0017C8.73696 19.3789 8.35965 18.5896 8.197 17.7286C8.03434 16.8675 8.09325 15.9713 8.36665 15.1474C8.64005 14.3236 9.11633 13.6071 9.73833 13.084C10.3603 12.5609 11.1016 12.2534 11.8732 12.1984L12.1243 11.9124V8.75705Z" fill="black" fill-opacity="0.5"/>
</svg>
