<svg width="30" height="31" viewBox="0 0 30 31" fill="none" xmlns="http://www.w3.org/2000/svg">
<path d="M17.5701 30.493H12.0331C11.6861 30.493 11.3496 30.3771 11.0793 30.1645C10.809 29.9519 10.6211 29.6553 10.5469 29.3239L9.92777 26.5218C9.10187 26.168 8.31874 25.7255 7.59279 25.2026L4.79842 26.0726C4.46766 26.1758 4.11078 26.1652 3.78703 26.0426C3.46328 25.9201 3.19215 25.6929 3.01866 25.3989L0.244066 20.7123C0.0723962 20.418 0.00795554 20.0755 0.0612872 19.7407C0.114619 19.406 0.282565 19.0988 0.53765 18.8695L2.7053 16.936C2.60673 16.0601 2.60673 15.1763 2.7053 14.3005L0.53765 12.3714C0.282204 12.142 0.114029 11.8346 0.0606888 11.4995C0.00734843 11.1644 0.0720068 10.8216 0.244066 10.5271L3.01258 5.8376C3.18607 5.54358 3.4572 5.31643 3.78095 5.19387C4.10469 5.07131 4.46158 5.06071 4.79234 5.16384L7.58671 6.03393C7.95787 5.76621 8.34424 5.51634 8.74279 5.29027C9.12764 5.07906 9.52314 4.8872 9.92777 4.71616L10.5484 1.91701C10.6223 1.58564 10.8098 1.2889 11.0798 1.07601C11.3498 0.863111 11.6862 0.746847 12.0331 0.74649H17.5701C17.917 0.746847 18.2533 0.863111 18.5233 1.07601C18.7933 1.2889 18.9808 1.58564 19.0547 1.91701L19.6815 4.71765C20.5063 5.07351 21.2892 5.51586 22.0164 6.0369L24.8123 5.16682C25.1429 5.06407 25.4994 5.07486 25.8228 5.1974C26.1463 5.31994 26.4171 5.54687 26.5906 5.84058L29.3591 10.5301C29.712 11.1354 29.5903 11.9014 29.0655 12.3729L26.8978 14.3064C26.9964 15.1823 26.9964 16.0661 26.8978 16.942L29.0655 18.8755C29.5903 19.3485 29.712 20.1129 29.3591 20.7183L26.5906 25.4078C26.4171 25.7018 26.1459 25.929 25.8222 26.0515C25.4984 26.1741 25.1416 26.1847 24.8108 26.0816L22.0164 25.2115C21.291 25.7341 20.5084 26.176 19.683 26.5293L19.0547 29.3239C18.9805 29.655 18.7929 29.9514 18.5229 30.164C18.2529 30.3766 17.9167 30.4927 17.5701 30.493ZM14.7955 9.67043C13.1817 9.67043 11.6341 10.2972 10.493 11.4129C9.3519 12.5287 8.71084 14.0419 8.71084 15.6197C8.71084 17.1976 9.3519 18.7108 10.493 19.8265C11.6341 20.9422 13.1817 21.569 14.7955 21.569C16.4092 21.569 17.9569 20.9422 19.098 19.8265C20.2391 18.7108 20.8801 17.1976 20.8801 15.6197C20.8801 14.0419 20.2391 12.5287 19.098 11.4129C17.9569 10.2972 16.4092 9.67043 14.7955 9.67043Z" fill="black" fill-opacity="0.5"/>
</svg>
