<svg width="36" height="31" viewBox="0 0 36 31" fill="none" xmlns="http://www.w3.org/2000/svg">
<path d="M17.841 8.46351L6.57688 18.5472V29.4305C6.57688 29.7123 6.67987 29.9825 6.8632 30.1818C7.04652 30.381 7.29515 30.493 7.55441 30.493L14.4008 30.4737C14.6592 30.4723 14.9065 30.3597 15.0888 30.1606C15.2711 29.9615 15.3734 29.6921 15.3734 29.4112V23.0555C15.3734 22.7737 15.4764 22.5035 15.6597 22.3042C15.843 22.105 16.0917 21.993 16.3509 21.993H20.261C20.5203 21.993 20.7689 22.105 20.9522 22.3042C21.1356 22.5035 21.2385 22.7737 21.2385 23.0555V29.4066C21.2381 29.5464 21.2631 29.6849 21.3121 29.8142C21.361 29.9435 21.433 30.061 21.5238 30.16C21.6146 30.259 21.7225 30.3376 21.8413 30.3912C21.9601 30.4448 22.0874 30.4724 22.2161 30.4724L29.06 30.493C29.3192 30.493 29.5679 30.381 29.7512 30.1818C29.9345 29.9825 30.0375 29.7123 30.0375 29.4305V18.5399L18.7758 8.46351C18.6434 8.34751 18.4785 8.28426 18.3084 8.28426C18.1384 8.28426 17.9734 8.34751 17.841 8.46351ZM35.6338 15.3173L30.5263 10.7412V1.54336C30.5263 1.33202 30.449 1.12933 30.3115 0.979888C30.174 0.830446 29.9876 0.74649 29.7931 0.74649H26.3718C26.1773 0.74649 25.9909 0.830446 25.8534 0.979888C25.7159 1.12933 25.6386 1.33202 25.6386 1.54336V6.36509L20.1688 1.47363C19.6438 1.00413 18.9852 0.747429 18.3054 0.747429C17.6256 0.747429 16.9669 1.00413 16.442 1.47363L0.976885 15.3173C0.902646 15.3839 0.841226 15.4659 0.796133 15.5584C0.751039 15.6509 0.723157 15.7521 0.714079 15.8564C0.705001 15.9606 0.714906 16.0657 0.743226 16.1658C0.771547 16.2658 0.817728 16.3589 0.879132 16.4395L2.43706 18.4981C2.4983 18.579 2.57362 18.646 2.65872 18.6953C2.74381 18.7445 2.83701 18.7751 2.93297 18.7851C3.02893 18.7952 3.12578 18.7846 3.21796 18.7539C3.31014 18.7232 3.39585 18.6731 3.47019 18.6063L17.841 5.74087C17.9734 5.62488 18.1384 5.56162 18.3084 5.56162C18.4785 5.56162 18.6434 5.62488 18.7758 5.74087L33.1473 18.6063C33.2215 18.6731 33.307 18.7233 33.3991 18.754C33.4911 18.7848 33.5879 18.7956 33.6838 18.7857C33.7796 18.7759 33.8728 18.7456 33.9579 18.6965C34.043 18.6475 34.1184 18.5808 34.1798 18.5001L35.7377 16.4415C35.799 16.3604 35.845 16.2669 35.873 16.1664C35.901 16.0659 35.9104 15.9604 35.9008 15.8559C35.8911 15.7514 35.8626 15.6501 35.8168 15.5576C35.771 15.4652 35.7088 15.3835 35.6338 15.3173Z" fill="black" fill-opacity="0.5"/>
</svg>
